<svg width="2800" height="2800" version="1.1" viewBox="0 0 2800 2800" xml:space="preserve" xmlns="http://www.w3.org/2000/svg"><g transform="matrix(1.3333 0 0 -1.3333 0 2800)"><g transform="scale(.1)" fill-rule="evenodd"><path d="m0 4.75e-4h21000v21000h-21000v-21000" fill="#110f0d"/><path d="m13848 12176v5318.6h-2697.4v-13988l2697.4 1039.4 955.09 367.69 2697.1 1037.6v2017.3l-2697.1 1039.4v-2267.7c0-165.08-215.74-300.21-479.29-300.21-260.06 0-475.8 135.13-475.8 300.21v5368.2zm475.8-5736.1" fill="#fff"/><path d="m6463.7 11857 688.58-266.38v-5624.7c0-162.89-215.79-298.19-475.99-298.19-263.37 0-475.99 135.29-475.99 298.19v10508c0 164.91 212.62 300.04 475.99 300.04 260.2 0 475.99-135.13 475.99-300.04v-3140.2l2697.3-1037.6v5203.3h-6349.6v-11555l2700.3-1039.4 951.98-365.66 2697.3-1039.4v7737.4l-2697.3 1039.4-688.58 266.38zm212.59 4917.1" fill="#fff"/></g></g></svg>
